<?xml version="1.0" standalone="no"?>
<!DOCTYPE svg PUBLIC "-//W3C//DTD SVG 20010904//EN"
 "http://www.w3.org/TR/2001/REC-SVG-20010904/DTD/svg10.dtd">
<svg version="1.0" xmlns="http://www.w3.org/2000/svg"
 width="500.000000pt" height="500.000000pt" viewBox="0 0 500.000000 500.000000"
 preserveAspectRatio="xMidYMid meet">

<g transform="translate(0.000000,500.000000) scale(0.100000,-0.100000)"
fill="#000000" stroke="none">
<path d="M1134 4832 c-10 -2 -29 -13 -41 -25 l-23 -20 0 -1144 0 -1143 -490 0
c-537 0 -545 -1 -569 -57 -9 -22 -11 -236 -9 -893 l3 -865 29 -84 c46 -132
144 -267 244 -339 26 -18 85 -45 132 -60 l85 -27 2030 0 2030 0 70 23 c98 32
145 62 209 134 70 78 121 174 146 274 20 76 20 120 20 2126 l0 2049 -25 24
c-13 14 -32 25 -42 25 -2512 4 -3784 4 -3799 2z m3691 -2162 c0 -2108 2 -2029
-42 -2130 -23 -54 -68 -105 -128 -144 -108 -72 45 -67 -1873 -69 -952 -1
-1732 2 -1732 6 0 5 20 34 44 65 75 97 120 205 136 323 6 45 10 830 10 2017
l0 1942 1793 -2 1792 -3 0 -2005z m-3757 -1100 c2 -537 0 -781 -9 -845 -14
-114 -51 -188 -130 -267 -234 -234 -617 -144 -730 172 l-24 65 -3 818 -3 817
448 -2 448 -3 3 -755z"/>
<path d="M2292 4377 c-22 -23 -22 -26 -22 -426 0 -400 2 -432 34 -453 6 -4
117 -8 247 -8 215 0 239 2 259 18 28 23 30 75 4 103 -16 17 -33 19 -201 19
l-183 0 0 124 0 124 111 4 c96 3 113 6 125 22 20 28 17 63 -6 86 -17 17 -33
20 -125 20 l-105 0 0 120 0 120 176 0 c96 0 184 4 194 10 22 12 42 64 33 88
-18 52 -19 52 -278 52 -240 0 -242 0 -263 -23z"/>
<path d="M4255 4381 c-78 -22 -99 -35 -128 -74 -40 -53 -49 -91 -45 -171 5
-113 31 -145 179 -221 191 -99 209 -115 209 -189 0 -48 -31 -82 -87 -95 -62
-15 -122 2 -188 53 -26 20 -54 36 -62 36 -28 0 -55 -22 -69 -56 -31 -74 30
-132 179 -170 70 -19 156 -14 227 11 124 44 175 120 168 253 -7 144 -40 183
-241 283 -56 27 -112 61 -124 75 -32 35 -30 84 2 114 37 35 141 40 208 11 65
-28 91 -27 116 5 26 33 27 78 2 103 -25 25 -143 51 -223 50 -35 0 -90 -8 -123
-18z"/>
<path d="M1452 4378 c-9 -9 -12 -119 -12 -434 0 -477 -5 -449 81 -449 84 0 84
-1 87 277 l3 241 36 -59 c19 -32 76 -135 125 -229 50 -93 99 -182 109 -197 31
-43 106 -49 144 -12 13 13 15 75 15 434 0 473 6 440 -80 440 -83 0 -80 11 -80
-267 l0 -247 -28 45 c-15 24 -73 131 -128 238 -111 217 -124 231 -209 231 -28
0 -56 -5 -63 -12z"/>
<path d="M2956 4374 c-25 -14 -28 -20 -23 -53 2 -21 47 -172 100 -337 52 -164
100 -324 107 -354 14 -59 36 -110 54 -123 47 -32 147 -25 177 12 9 11 33 88
54 171 21 83 41 148 45 143 4 -4 24 -78 44 -165 39 -163 37 -160 100 -179 37
-11 101 5 122 30 9 10 28 56 44 102 78 230 162 497 170 538 5 25 18 77 29 114
l20 69 -26 24 c-29 27 -103 34 -122 11 -6 -8 -37 -105 -70 -218 -63 -215 -119
-404 -127 -429 -9 -26 -18 3 -69 214 -54 222 -56 226 -125 226 -59 0 -74 -29
-125 -235 -51 -212 -54 -220 -60 -213 -3 2 -20 56 -39 119 -19 63 -49 161 -66
219 -17 58 -40 145 -51 194 -25 118 -37 136 -92 136 -23 -1 -55 -8 -71 -16z"/>
<path d="M1623 3130 c-43 -26 -46 -74 -7 -111 l26 -24 1395 0 1395 0 24 28
c37 44 31 88 -17 112 -24 13 -216 15 -1406 15 -1356 0 -1379 0 -1410 -20z"/>
<path d="M1635 2768 c-51 -28 -60 -80 -19 -119 l26 -24 1374 -3 c1503 -2 1432
-5 1455 54 13 36 -4 77 -37 93 -35 16 -2770 15 -2799 -1z"/>
<path d="M1635 2398 c-51 -28 -60 -80 -19 -119 l26 -24 1395 0 1395 0 24 28
c32 37 30 62 -5 98 l-29 29 -1384 0 c-982 -1 -1389 -4 -1403 -12z"/>
<path d="M1629 2027 c-38 -29 -39 -41 -39 -631 l0 -575 24 -28 24 -28 624 -2
c714 -1 752 0 785 33 l23 23 0 580 c0 319 -3 587 -6 596 -18 45 -23 45 -741
45 -517 -1 -682 -4 -694 -13z m1261 -622 l0 -475 -565 0 -565 0 0 475 0 475
565 0 565 0 0 -475z"/>
<path d="M3395 2015 c-31 -30 -33 -82 -5 -113 l21 -22 507 0 c553 0 542 -1
556 56 9 36 -9 79 -40 93 -18 8 -173 11 -520 11 l-495 0 -24 -25z"/>
<path d="M3395 1645 c-26 -26 -33 -72 -15 -105 20 -37 59 -40 544 -40 429 0
474 2 505 18 61 30 64 114 5 141 -18 8 -173 11 -520 11 l-495 0 -24 -25z"/>
<path d="M3395 1275 c-50 -50 -24 -127 47 -140 18 -3 248 -5 511 -3 l479 3 24
28 c26 31 30 57 12 90 -25 47 -15 46 -546 47 l-503 0 -24 -25z"/>
<path d="M3396 909 c-20 -16 -26 -29 -26 -57 1 -44 16 -67 54 -82 17 -6 196
-10 497 -10 509 0 527 2 550 54 14 31 5 70 -23 96 -21 20 -33 20 -524 20 -492
0 -502 0 -528 -21z"/>
</g>
</svg>
